<svg xmlns="http://www.w3.org/2000/svg" x="0" y="0" width="512" height="512" viewBox="0 0 512 512"><path d="M104.426 139.813l83.563 83.781a59102.784 59102.784 0 0 0 36.109-34.672l-84.297-84.5-10.313-45.719L54.27 12.985 33.629 33.642l-20.641 20.64 45.719 75.219 45.719 10.312zM358.363 276.298L481.926 399.47c22.781 22.766 22.781 59.688 0 82.469-22.781 22.766-59.688 22.766-82.469 0L275.895 358.767l82.468-82.469z" fill="#fff"/><path d="M459.957 203.407c42.547-38.609 49.656-82.484 40.141-119.484-.281-2.938-.984-5.406-3.547-7.25l-8.563-7.016a7.052 7.052 0 0 0-5.484-1.875 7.054 7.054 0 0 0-5.031 2.875l-49.25 64.031a7.028 7.028 0 0 1-5.922 2.891l-17.875 1.313a7.08 7.08 0 0 1-4.219-1.563l-34.531-29.266a7.054 7.054 0 0 1-2.563-4.563l-2.141-16.188a6.98 6.98 0 0 1 1.266-5.063l46.109-62.641c2.094-2.875 1.688-6.859-.906-9.281l-11.188-8.75c-2.188-2.031-4.672-1.75-8.063-1.094-31.844 6.281-86.219 37.125-100.016 79.75-12.156 37.516-7.922 63.969-7.922 63.969 0 21.141-6.953 41.516-15.5 50.063L24.504 424.923c-.469.422-.922.859-1.375 1.313-19.844 19.844-19.813 52.047-.641 71.219s51.859 19.672 71.703-.172a45.464 45.464 0 0 0 2.641-2.859l231.672-250.438c28.5-25.376 84.922 1.656 131.453-40.579z" fill="#fff"/></svg>