<svg xmlns="http://www.w3.org/2000/svg" x="0" y="0" viewBox="0 0 512 512" width="512" height="512"><path fill="#fff" d="M168.084 335.709h175.831v20.29H168.084zM168.084 387.871h175.831v20.29H168.084zM168.084 434.242h83.085v20.29h-83.085z"/><path d="M488.338 163.731a44.4 44.4 0 0 0-31.44-13.028h-47.304V78.276L331.319 0H102.405v150.703H55.102a44.4 44.4 0 0 0-31.448 13.028 44.395 44.395 0 0 0-13.012 31.436v169.958a44.397 44.397 0 0 0 13.012 31.453c8.017 8.012 19.208 13.02 31.448 13.004h47.303V512h307.189V409.582h47.304c12.233.016 23.419-4.992 31.428-13.004a44.345 44.345 0 0 0 13.033-31.453V195.168a44.389 44.389 0 0 0-13.021-31.437zM324.587 26.048l57.024 57.041h-57.024V26.048zm61.822 462.771H125.59V398h-.012v-94.655H386.4v106.238h.008v79.236zm-50.596-258.532c0-9.216 7.475-16.679 16.675-16.679 9.216 0 16.679 7.463 16.679 16.679 0 9.208-7.463 16.671-16.679 16.671-9.199 0-16.675-7.463-16.675-16.671zm50.596-79.584H125.59V23.189h175.811v83.074h85.007v44.44zm37.058 96.255c-9.204 0-16.667-7.463-16.667-16.671 0-9.216 7.463-16.679 16.667-16.679 9.212 0 16.675 7.463 16.675 16.679 0 9.208-7.463 16.671-16.675 16.671z" fill="#fff"/></svg>