<svg xmlns="http://www.w3.org/2000/svg" width="405" height="405"><path fill="#fff" fill-rule="evenodd" d="M0 0h405v405H0zM36 36h9v9h-9zM36 45h9v9h-9zM36 54h9v9h-9zM36 63h9v9h-9zM36 72h9v9h-9zM36 81h9v9h-9zM36 90h9v9h-9zM36 126h9v9h-9zM36 162h9v9h-9zM36 171h9v9h-9zM36 189h9v9h-9zM36 216h9v9h-9zM36 243h9v9h-9zM36 252h9v9h-9zM36 270h9v9h-9zM36 279h9v9h-9zM36 306h9v9h-9zM36 315h9v9h-9zM36 324h9v9h-9zM36 333h9v9h-9zM36 342h9v9h-9zM36 351h9v9h-9zM36 360h9v9h-9zM45 36h9v9h-9zM45 90h9v9h-9zM45 117h9v9h-9zM45 126h9v9h-9zM45 135h9v9h-9zM45 153h9v9h-9zM45 162h9v9h-9zM45 171h9v9h-9zM45 198h9v9h-9zM45 225h9v9h-9zM45 252h9v9h-9zM45 261h9v9h-9zM45 270h9v9h-9zM45 279h9v9h-9zM45 306h9v9h-9zM45 360h9v9h-9zM54 36h9v9h-9zM54 54h9v9h-9zM54 63h9v9h-9zM54 72h9v9h-9zM54 90h9v9h-9zM54 117h9v9h-9zM54 135h9v9h-9zM54 189h9v9h-9zM54 216h9v9h-9zM54 225h9v9h-9zM54 243h9v9h-9zM54 261h9v9h-9zM54 279h9v9h-9zM54 288h9v9h-9zM54 306h9v9h-9zM54 324h9v9h-9zM54 333h9v9h-9zM54 342h9v9h-9zM54 360h9v9h-9zM63 36h9v9h-9zM63 54h9v9h-9zM63 63h9v9h-9zM63 72h9v9h-9zM63 90h9v9h-9zM63 126h9v9h-9zM63 180h9v9h-9zM63 189h9v9h-9zM63 198h9v9h-9zM63 243h9v9h-9zM63 261h9v9h-9zM63 270h9v9h-9zM63 279h9v9h-9zM63 306h9v9h-9zM63 324h9v9h-9zM63 333h9v9h-9zM63 342h9v9h-9zM63 360h9v9h-9zM72 36h9v9h-9zM72 54h9v9h-9zM72 63h9v9h-9zM72 72h9v9h-9zM72 90h9v9h-9zM72 108h9v9h-9zM72 126h9v9h-9zM72 135h9v9h-9zM72 153h9v9h-9zM72 189h9v9h-9zM72 225h9v9h-9zM72 234h9v9h-9zM72 252h9v9h-9zM72 261h9v9h-9zM72 288h9v9h-9zM72 306h9v9h-9zM72 324h9v9h-9zM72 333h9v9h-9zM72 342h9v9h-9zM72 360h9v9h-9zM81 36h9v9h-9zM81 90h9v9h-9zM81 108h9v9h-9zM81 117h9v9h-9zM81 135h9v9h-9zM81 207h9v9h-9zM81 216h9v9h-9zM81 225h9v9h-9zM81 252h9v9h-9zM81 270h9v9h-9zM81 279h9v9h-9zM81 306h9v9h-9zM81 360h9v9h-9zM90 36h9v9h-9zM90 45h9v9h-9zM90 54h9v9h-9zM90 63h9v9h-9zM90 72h9v9h-9zM90 81h9v9h-9zM90 90h9v9h-9zM90 108h9v9h-9zM90 126h9v9h-9zM90 144h9v9h-9zM90 162h9v9h-9zM90 180h9v9h-9zM90 198h9v9h-9zM90 216h9v9h-9zM90 234h9v9h-9zM90 252h9v9h-9zM90 270h9v9h-9zM90 288h9v9h-9zM90 306h9v9h-9zM90 315h9v9h-9zM90 324h9v9h-9zM90 333h9v9h-9zM90 342h9v9h-9zM90 351h9v9h-9zM90 360h9v9h-9zM99 108h9v9h-9zM99 117h9v9h-9zM99 135h9v9h-9zM99 144h9v9h-9zM99 153h9v9h-9zM99 162h9v9h-9zM99 180h9v9h-9zM99 189h9v9h-9zM99 207h9v9h-9zM99 216h9v9h-9zM99 243h9v9h-9zM99 279h9v9h-9zM108 45h9v9h-9zM108 81h9v9h-9zM108 90h9v9h-9zM108 99h9v9h-9zM108 117h9v9h-9zM108 135h9v9h-9zM108 153h9v9h-9zM108 162h9v9h-9zM108 189h9v9h-9zM108 198h9v9h-9zM108 216h9v9h-9zM108 225h9v9h-9zM108 243h9v9h-9zM108 261h9v9h-9zM108 270h9v9h-9zM108 297h9v9h-9zM108 306h9v9h-9zM108 315h9v9h-9zM108 324h9v9h-9zM117 36h9v9h-9zM117 63h9v9h-9zM117 72h9v9h-9zM117 81h9v9h-9zM117 99h9v9h-9zM117 117h9v9h-9zM117 126h9v9h-9zM117 135h9v9h-9zM117 144h9v9h-9zM117 180h9v9h-9zM117 234h9v9h-9zM117 243h9v9h-9zM117 252h9v9h-9zM117 270h9v9h-9zM117 279h9v9h-9zM117 288h9v9h-9zM117 306h9v9h-9zM117 315h9v9h-9zM117 324h9v9h-9zM117 333h9v9h-9zM126 45h9v9h-9zM126 90h9v9h-9zM126 99h9v9h-9zM126 108h9v9h-9zM126 117h9v9h-9zM126 126h9v9h-9zM126 153h9v9h-9zM126 162h9v9h-9zM126 171h9v9h-9zM126 189h9v9h-9zM126 225h9v9h-9zM126 234h9v9h-9zM126 243h9v9h-9zM126 279h9v9h-9zM126 297h9v9h-9zM126 315h9v9h-9zM126 342h9v9h-9zM126 351h9v9h-9zM126 360h9v9h-9zM135 36h9v9h-9zM135 63h9v9h-9zM135 72h9v9h-9zM135 99h9v9h-9zM135 108h9v9h-9zM135 135h9v9h-9zM135 153h9v9h-9zM135 162h9v9h-9zM135 171h9v9h-9zM135 180h9v9h-9zM135 207h9v9h-9zM135 216h9v9h-9zM135 225h9v9h-9zM135 252h9v9h-9zM135 261h9v9h-9zM135 270h9v9h-9zM135 279h9v9h-9zM135 288h9v9h-9zM135 297h9v9h-9zM135 306h9v9h-9zM135 342h9v9h-9zM144 72h9v9h-9zM144 90h9v9h-9zM144 99h9v9h-9zM144 108h9v9h-9zM144 126h9v9h-9zM144 135h9v9h-9zM144 153h9v9h-9zM144 162h9v9h-9zM144 171h9v9h-9zM144 180h9v9h-9zM144 189h9v9h-9zM144 198h9v9h-9zM144 225h9v9h-9zM144 252h9v9h-9zM144 288h9v9h-9zM144 324h9v9h-9zM153 45h9v9h-9zM153 54h9v9h-9zM153 81h9v9h-9zM153 126h9v9h-9zM153 135h9v9h-9zM153 144h9v9h-9zM153 189h9v9h-9zM153 207h9v9h-9zM153 225h9v9h-9zM153 261h9v9h-9zM153 288h9v9h-9zM153 297h9v9h-9zM153 342h9v9h-9zM153 351h9v9h-9zM153 360h9v9h-9zM162 45h9v9h-9zM162 90h9v9h-9zM162 99h9v9h-9zM162 126h9v9h-9zM162 135h9v9h-9zM162 153h9v9h-9zM162 198h9v9h-9zM162 216h9v9h-9zM162 234h9v9h-9zM162 243h9v9h-9zM162 252h9v9h-9zM162 270h9v9h-9zM162 279h9v9h-9zM162 288h9v9h-9zM162 297h9v9h-9zM162 315h9v9h-9zM162 342h9v9h-9zM162 360h9v9h-9zM171 45h9v9h-9zM171 54h9v9h-9zM171 63h9v9h-9zM171 108h9v9h-9zM171 117h9v9h-9zM171 144h9v9h-9zM171 153h9v9h-9zM171 162h9v9h-9zM171 189h9v9h-9zM171 207h9v9h-9zM171 234h9v9h-9zM171 243h9v9h-9zM171 261h9v9h-9zM171 270h9v9h-9zM171 279h9v9h-9zM171 297h9v9h-9zM171 306h9v9h-9zM180 45h9v9h-9zM180 63h9v9h-9zM180 81h9v9h-9zM180 90h9v9h-9zM180 99h9v9h-9zM180 126h9v9h-9zM180 135h9v9h-9zM180 153h9v9h-9zM180 171h9v9h-9zM180 180h9v9h-9zM180 198h9v9h-9zM180 216h9v9h-9zM180 225h9v9h-9zM180 243h9v9h-9zM180 252h9v9h-9zM180 270h9v9h-9zM180 324h9v9h-9zM180 333h9v9h-9zM180 351h9v9h-9zM189 36h9v9h-9zM189 54h9v9h-9zM189 72h9v9h-9zM189 81h9v9h-9zM189 99h9v9h-9zM189 126h9v9h-9zM189 135h9v9h-9zM189 189h9v9h-9zM189 198h9v9h-9zM189 234h9v9h-9zM189 252h9v9h-9zM189 306h9v9h-9zM189 315h9v9h-9zM189 351h9v9h-9zM189 360h9v9h-9zM198 45h9v9h-9zM198 54h9v9h-9zM198 72h9v9h-9zM198 81h9v9h-9zM198 90h9v9h-9zM198 99h9v9h-9zM198 108h9v9h-9zM198 117h9v9h-9zM198 153h9v9h-9zM198 162h9v9h-9zM198 180h9v9h-9zM198 207h9v9h-9zM198 216h9v9h-9zM198 225h9v9h-9zM198 234h9v9h-9zM198 243h9v9h-9zM198 252h9v9h-9zM198 261h9v9h-9zM198 297h9v9h-9zM198 306h9v9h-9zM198 315h9v9h-9zM198 324h9v9h-9zM198 333h9v9h-9zM198 351h9v9h-9zM207 36h9v9h-9zM207 45h9v9h-9zM207 54h9v9h-9zM207 99h9v9h-9zM207 108h9v9h-9zM207 126h9v9h-9zM207 135h9v9h-9zM207 189h9v9h-9zM207 198h9v9h-9zM207 234h9v9h-9zM207 243h9v9h-9zM207 252h9v9h-9zM207 261h9v9h-9zM207 270h9v9h-9zM207 279h9v9h-9zM207 297h9v9h-9zM207 333h9v9h-9zM207 342h9v9h-9zM207 360h9v9h-9zM216 36h9v9h-9zM216 54h9v9h-9zM216 90h9v9h-9zM216 99h9v9h-9zM216 108h9v9h-9zM216 117h9v9h-9zM216 126h9v9h-9zM216 144h9v9h-9zM216 162h9v9h-9zM216 171h9v9h-9zM216 252h9v9h-9zM216 261h9v9h-9zM216 279h9v9h-9zM216 288h9v9h-9zM216 324h9v9h-9zM216 333h9v9h-9zM216 351h9v9h-9zM225 81h9v9h-9zM225 108h9v9h-9zM225 126h9v9h-9zM225 135h9v9h-9zM225 153h9v9h-9zM225 162h9v9h-9zM225 180h9v9h-9zM225 198h9v9h-9zM225 207h9v9h-9zM225 216h9v9h-9zM225 225h9v9h-9zM225 279h9v9h-9zM225 288h9v9h-9zM225 333h9v9h-9zM234 72h9v9h-9zM234 90h9v9h-9zM234 99h9v9h-9zM234 108h9v9h-9zM234 162h9v9h-9zM234 189h9v9h-9zM234 198h9v9h-9zM234 207h9v9h-9zM234 225h9v9h-9zM234 252h9v9h-9zM234 270h9v9h-9zM234 279h9v9h-9zM234 288h9v9h-9zM234 297h9v9h-9zM234 324h9v9h-9zM234 333h9v9h-9zM243 36h9v9h-9zM243 45h9v9h-9zM243 63h9v9h-9zM243 135h9v9h-9zM243 144h9v9h-9zM243 153h9v9h-9zM243 162h9v9h-9zM243 171h9v9h-9zM243 198h9v9h-9zM243 207h9v9h-9zM243 216h9v9h-9zM243 243h9v9h-9zM243 288h9v9h-9zM243 297h9v9h-9zM243 306h9v9h-9zM243 342h9v9h-9zM243 351h9v9h-9zM252 36h9v9h-9zM252 45h9v9h-9zM252 54h9v9h-9zM252 81h9v9h-9zM252 90h9v9h-9zM252 99h9v9h-9zM252 117h9v9h-9zM252 135h9v9h-9zM252 171h9v9h-9zM252 198h9v9h-9zM252 207h9v9h-9zM252 216h9v9h-9zM252 234h9v9h-9zM252 252h9v9h-9zM252 279h9v9h-9zM252 306h9v9h-9zM252 333h9v9h-9zM252 342h9v9h-9zM261 36h9v9h-9zM261 63h9v9h-9zM261 72h9v9h-9zM261 81h9v9h-9zM261 108h9v9h-9zM261 126h9v9h-9zM261 234h9v9h-9zM261 243h9v9h-9zM261 252h9v9h-9zM261 261h9v9h-9zM261 306h9v9h-9zM261 324h9v9h-9zM261 333h9v9h-9zM270 36h9v9h-9zM270 45h9v9h-9zM270 54h9v9h-9zM270 63h9v9h-9zM270 72h9v9h-9zM270 81h9v9h-9zM270 90h9v9h-9zM270 99h9v9h-9zM270 108h9v9h-9zM270 126h9v9h-9zM270 135h9v9h-9zM270 162h9v9h-9zM270 171h9v9h-9zM270 180h9v9h-9zM270 189h9v9h-9zM270 225h9v9h-9zM270 234h9v9h-9zM270 261h9v9h-9zM270 270h9v9h-9zM270 306h9v9h-9zM270 315h9v9h-9zM270 333h9v9h-9zM270 342h9v9h-9zM270 351h9v9h-9zM279 36h9v9h-9zM279 72h9v9h-9zM279 108h9v9h-9zM279 144h9v9h-9zM279 153h9v9h-9zM279 162h9v9h-9zM279 189h9v9h-9zM279 198h9v9h-9zM279 225h9v9h-9zM279 234h9v9h-9zM279 252h9v9h-9zM279 270h9v9h-9zM279 279h9v9h-9zM279 297h9v9h-9zM279 333h9v9h-9zM279 351h9v9h-9zM279 360h9v9h-9zM288 36h9v9h-9zM288 45h9v9h-9zM288 63h9v9h-9zM288 81h9v9h-9zM288 90h9v9h-9zM288 117h9v9h-9zM288 126h9v9h-9zM288 153h9v9h-9zM288 162h9v9h-9zM288 171h9v9h-9zM288 189h9v9h-9zM288 207h9v9h-9zM288 234h9v9h-9zM288 243h9v9h-9zM288 252h9v9h-9zM288 279h9v9h-9zM288 288h9v9h-9zM288 297h9v9h-9zM288 306h9v9h-9zM288 315h9v9h-9zM288 324h9v9h-9zM288 333h9v9h-9zM297 117h9v9h-9zM297 126h9v9h-9zM297 135h9v9h-9zM297 144h9v9h-9zM297 153h9v9h-9zM297 162h9v9h-9zM297 171h9v9h-9zM297 198h9v9h-9zM297 216h9v9h-9zM297 243h9v9h-9zM297 252h9v9h-9zM297 270h9v9h-9zM297 288h9v9h-9zM297 324h9v9h-9zM306 36h9v9h-9zM306 45h9v9h-9zM306 54h9v9h-9zM306 63h9v9h-9zM306 72h9v9h-9zM306 81h9v9h-9zM306 90h9v9h-9zM306 108h9v9h-9zM306 117h9v9h-9zM306 144h9v9h-9zM306 171h9v9h-9zM306 180h9v9h-9zM306 198h9v9h-9zM306 216h9v9h-9zM306 225h9v9h-9zM306 234h9v9h-9zM306 243h9v9h-9zM306 261h9v9h-9zM306 279h9v9h-9zM306 288h9v9h-9zM306 306h9v9h-9zM306 324h9v9h-9zM306 333h9v9h-9zM306 342h9v9h-9zM306 351h9v9h-9zM315 36h9v9h-9zM315 90h9v9h-9zM315 108h9v9h-9zM315 117h9v9h-9zM315 126h9v9h-9zM315 144h9v9h-9zM315 162h9v9h-9zM315 171h9v9h-9zM315 198h9v9h-9zM315 207h9v9h-9zM315 243h9v9h-9zM315 252h9v9h-9zM315 279h9v9h-9zM315 288h9v9h-9zM315 324h9v9h-9zM315 333h9v9h-9zM315 342h9v9h-9zM315 351h9v9h-9zM324 36h9v9h-9zM324 54h9v9h-9zM324 63h9v9h-9zM324 72h9v9h-9zM324 90h9v9h-9zM324 117h9v9h-9zM324 153h9v9h-9zM324 171h9v9h-9zM324 189h9v9h-9zM324 225h9v9h-9zM324 252h9v9h-9zM324 270h9v9h-9zM324 279h9v9h-9zM324 288h9v9h-9zM324 297h9v9h-9zM324 306h9v9h-9zM324 315h9v9h-9zM324 324h9v9h-9zM324 360h9v9h-9zM333 36h9v9h-9zM333 54h9v9h-9zM333 63h9v9h-9zM333 72h9v9h-9zM333 90h9v9h-9zM333 126h9v9h-9zM333 162h9v9h-9zM333 180h9v9h-9zM333 189h9v9h-9zM333 198h9v9h-9zM333 216h9v9h-9zM333 252h9v9h-9zM333 279h9v9h-9zM333 297h9v9h-9zM333 306h9v9h-9zM333 324h9v9h-9zM333 333h9v9h-9zM333 342h9v9h-9zM342 36h9v9h-9zM342 54h9v9h-9zM342 63h9v9h-9zM342 72h9v9h-9zM342 90h9v9h-9zM342 135h9v9h-9zM342 144h9v9h-9zM342 153h9v9h-9zM342 162h9v9h-9zM342 171h9v9h-9zM342 180h9v9h-9zM342 198h9v9h-9zM342 207h9v9h-9zM342 216h9v9h-9zM342 243h9v9h-9zM342 252h9v9h-9zM342 270h9v9h-9zM342 279h9v9h-9zM342 306h9v9h-9zM342 315h9v9h-9zM342 324h9v9h-9zM342 342h9v9h-9zM342 351h9v9h-9zM342 360h9v9h-9zM351 36h9v9h-9zM351 90h9v9h-9zM351 108h9v9h-9zM351 117h9v9h-9zM351 153h9v9h-9zM351 225h9v9h-9zM351 243h9v9h-9zM351 252h9v9h-9zM351 324h9v9h-9zM351 342h9v9h-9zM351 351h9v9h-9zM351 360h9v9h-9zM360 36h9v9h-9zM360 45h9v9h-9zM360 54h9v9h-9zM360 63h9v9h-9zM360 72h9v9h-9zM360 81h9v9h-9zM360 90h9v9h-9zM360 144h9v9h-9zM360 207h9v9h-9zM360 216h9v9h-9zM360 252h9v9h-9zM360 279h9v9h-9zM360 315h9v9h-9zM360 324h9v9h-9zM360 360h9v9h-9z"/></svg>