<svg xmlns="http://www.w3.org/2000/svg" width="405" height="405"><path fill="#fff" fill-rule="evenodd" d="M0 0h405v405H0zM36 36h9v9h-9zM36 45h9v9h-9zM36 54h9v9h-9zM36 63h9v9h-9zM36 72h9v9h-9zM36 81h9v9h-9zM36 90h9v9h-9zM36 126h9v9h-9zM36 153h9v9h-9zM36 180h9v9h-9zM36 189h9v9h-9zM36 198h9v9h-9zM36 207h9v9h-9zM36 243h9v9h-9zM36 306h9v9h-9zM36 315h9v9h-9zM36 324h9v9h-9zM36 333h9v9h-9zM36 342h9v9h-9zM36 351h9v9h-9zM36 360h9v9h-9zM45 36h9v9h-9zM45 90h9v9h-9zM45 126h9v9h-9zM45 135h9v9h-9zM45 144h9v9h-9zM45 153h9v9h-9zM45 171h9v9h-9zM45 180h9v9h-9zM45 198h9v9h-9zM45 216h9v9h-9zM45 234h9v9h-9zM45 261h9v9h-9zM45 279h9v9h-9zM45 288h9v9h-9zM45 306h9v9h-9zM45 360h9v9h-9zM54 36h9v9h-9zM54 54h9v9h-9zM54 63h9v9h-9zM54 72h9v9h-9zM54 90h9v9h-9zM54 117h9v9h-9zM54 126h9v9h-9zM54 135h9v9h-9zM54 162h9v9h-9zM54 198h9v9h-9zM54 207h9v9h-9zM54 225h9v9h-9zM54 234h9v9h-9zM54 243h9v9h-9zM54 252h9v9h-9zM54 261h9v9h-9zM54 279h9v9h-9zM54 306h9v9h-9zM54 324h9v9h-9zM54 333h9v9h-9zM54 342h9v9h-9zM54 360h9v9h-9zM63 36h9v9h-9zM63 54h9v9h-9zM63 63h9v9h-9zM63 72h9v9h-9zM63 90h9v9h-9zM63 108h9v9h-9zM63 117h9v9h-9zM63 171h9v9h-9zM63 180h9v9h-9zM63 189h9v9h-9zM63 207h9v9h-9zM63 270h9v9h-9zM63 288h9v9h-9zM63 306h9v9h-9zM63 324h9v9h-9zM63 333h9v9h-9zM63 342h9v9h-9zM63 360h9v9h-9zM72 36h9v9h-9zM72 54h9v9h-9zM72 63h9v9h-9zM72 72h9v9h-9zM72 90h9v9h-9zM72 108h9v9h-9zM72 126h9v9h-9zM72 144h9v9h-9zM72 153h9v9h-9zM72 180h9v9h-9zM72 189h9v9h-9zM72 198h9v9h-9zM72 207h9v9h-9zM72 216h9v9h-9zM72 225h9v9h-9zM72 234h9v9h-9zM72 252h9v9h-9zM72 261h9v9h-9zM72 270h9v9h-9zM72 279h9v9h-9zM72 288h9v9h-9zM72 306h9v9h-9zM72 324h9v9h-9zM72 333h9v9h-9zM72 342h9v9h-9zM72 360h9v9h-9zM81 36h9v9h-9zM81 90h9v9h-9zM81 117h9v9h-9zM81 135h9v9h-9zM81 153h9v9h-9zM81 162h9v9h-9zM81 171h9v9h-9zM81 180h9v9h-9zM81 198h9v9h-9zM81 234h9v9h-9zM81 252h9v9h-9zM81 270h9v9h-9zM81 288h9v9h-9zM81 306h9v9h-9zM81 360h9v9h-9zM90 36h9v9h-9zM90 45h9v9h-9zM90 54h9v9h-9zM90 63h9v9h-9zM90 72h9v9h-9zM90 81h9v9h-9zM90 90h9v9h-9zM90 108h9v9h-9zM90 126h9v9h-9zM90 144h9v9h-9zM90 162h9v9h-9zM90 180h9v9h-9zM90 198h9v9h-9zM90 216h9v9h-9zM90 234h9v9h-9zM90 252h9v9h-9zM90 270h9v9h-9zM90 288h9v9h-9zM90 306h9v9h-9zM90 315h9v9h-9zM90 324h9v9h-9zM90 333h9v9h-9zM90 342h9v9h-9zM90 351h9v9h-9zM90 360h9v9h-9zM99 108h9v9h-9zM99 126h9v9h-9zM99 135h9v9h-9zM99 144h9v9h-9zM99 153h9v9h-9zM99 180h9v9h-9zM99 198h9v9h-9zM99 216h9v9h-9zM99 225h9v9h-9zM99 243h9v9h-9zM99 252h9v9h-9zM99 261h9v9h-9zM99 279h9v9h-9zM108 54h9v9h-9zM108 63h9v9h-9zM108 90h9v9h-9zM108 117h9v9h-9zM108 135h9v9h-9zM108 153h9v9h-9zM108 162h9v9h-9zM108 171h9v9h-9zM108 189h9v9h-9zM108 198h9v9h-9zM108 207h9v9h-9zM108 216h9v9h-9zM108 234h9v9h-9zM108 243h9v9h-9zM108 279h9v9h-9zM108 288h9v9h-9zM108 297h9v9h-9zM108 306h9v9h-9zM108 324h9v9h-9zM108 333h9v9h-9zM117 45h9v9h-9zM117 54h9v9h-9zM117 63h9v9h-9zM117 99h9v9h-9zM117 108h9v9h-9zM117 117h9v9h-9zM117 135h9v9h-9zM117 153h9v9h-9zM117 198h9v9h-9zM117 234h9v9h-9zM117 252h9v9h-9zM117 342h9v9h-9zM117 351h9v9h-9zM126 36h9v9h-9zM126 45h9v9h-9zM126 54h9v9h-9zM126 90h9v9h-9zM126 117h9v9h-9zM126 126h9v9h-9zM126 144h9v9h-9zM126 153h9v9h-9zM126 162h9v9h-9zM126 171h9v9h-9zM126 189h9v9h-9zM126 225h9v9h-9zM126 243h9v9h-9zM126 252h9v9h-9zM126 261h9v9h-9zM126 270h9v9h-9zM126 288h9v9h-9zM126 297h9v9h-9zM126 306h9v9h-9zM126 315h9v9h-9zM126 342h9v9h-9zM126 360h9v9h-9zM135 54h9v9h-9zM135 81h9v9h-9zM135 126h9v9h-9zM135 144h9v9h-9zM135 225h9v9h-9zM135 234h9v9h-9zM135 252h9v9h-9zM135 261h9v9h-9zM135 279h9v9h-9zM135 297h9v9h-9zM135 315h9v9h-9zM144 36h9v9h-9zM144 45h9v9h-9zM144 63h9v9h-9zM144 90h9v9h-9zM144 108h9v9h-9zM144 117h9v9h-9zM144 126h9v9h-9zM144 153h9v9h-9zM144 171h9v9h-9zM144 180h9v9h-9zM144 189h9v9h-9zM144 198h9v9h-9zM144 225h9v9h-9zM144 234h9v9h-9zM144 252h9v9h-9zM144 279h9v9h-9zM144 288h9v9h-9zM144 297h9v9h-9zM144 306h9v9h-9zM144 333h9v9h-9zM144 342h9v9h-9zM144 351h9v9h-9zM153 36h9v9h-9zM153 63h9v9h-9zM153 81h9v9h-9zM153 144h9v9h-9zM153 180h9v9h-9zM153 189h9v9h-9zM153 198h9v9h-9zM153 207h9v9h-9zM153 216h9v9h-9zM153 225h9v9h-9zM153 234h9v9h-9zM153 252h9v9h-9zM153 288h9v9h-9zM153 324h9v9h-9zM153 342h9v9h-9zM153 351h9v9h-9zM153 360h9v9h-9zM162 54h9v9h-9zM162 63h9v9h-9zM162 90h9v9h-9zM162 99h9v9h-9zM162 117h9v9h-9zM162 144h9v9h-9zM162 162h9v9h-9zM162 180h9v9h-9zM162 189h9v9h-9zM162 198h9v9h-9zM162 216h9v9h-9zM162 225h9v9h-9zM162 234h9v9h-9zM162 252h9v9h-9zM162 261h9v9h-9zM162 270h9v9h-9zM162 288h9v9h-9zM162 324h9v9h-9zM162 333h9v9h-9zM162 360h9v9h-9zM171 36h9v9h-9zM171 45h9v9h-9zM171 63h9v9h-9zM171 72h9v9h-9zM171 81h9v9h-9zM171 126h9v9h-9zM171 144h9v9h-9zM171 153h9v9h-9zM171 162h9v9h-9zM171 180h9v9h-9zM171 234h9v9h-9zM171 243h9v9h-9zM171 252h9v9h-9zM171 261h9v9h-9zM171 288h9v9h-9zM171 297h9v9h-9zM171 306h9v9h-9zM171 315h9v9h-9zM171 324h9v9h-9zM171 333h9v9h-9zM171 342h9v9h-9zM171 351h9v9h-9zM171 360h9v9h-9zM180 36h9v9h-9zM180 54h9v9h-9zM180 81h9v9h-9zM180 90h9v9h-9zM180 99h9v9h-9zM180 117h9v9h-9zM180 162h9v9h-9zM180 171h9v9h-9zM180 180h9v9h-9zM180 198h9v9h-9zM180 216h9v9h-9zM180 243h9v9h-9zM180 270h9v9h-9zM180 315h9v9h-9zM180 324h9v9h-9zM180 333h9v9h-9zM180 351h9v9h-9zM189 36h9v9h-9zM189 63h9v9h-9zM189 72h9v9h-9zM189 108h9v9h-9zM189 126h9v9h-9zM189 144h9v9h-9zM189 153h9v9h-9zM189 162h9v9h-9zM189 171h9v9h-9zM189 180h9v9h-9zM189 189h9v9h-9zM189 198h9v9h-9zM189 207h9v9h-9zM189 225h9v9h-9zM189 234h9v9h-9zM189 243h9v9h-9zM189 270h9v9h-9zM189 288h9v9h-9zM189 297h9v9h-9zM189 315h9v9h-9zM189 324h9v9h-9zM189 342h9v9h-9zM189 351h9v9h-9zM198 36h9v9h-9zM198 63h9v9h-9zM198 90h9v9h-9zM198 108h9v9h-9zM198 126h9v9h-9zM198 144h9v9h-9zM198 162h9v9h-9zM198 180h9v9h-9zM198 198h9v9h-9zM198 225h9v9h-9zM198 234h9v9h-9zM198 243h9v9h-9zM198 270h9v9h-9zM198 279h9v9h-9zM198 297h9v9h-9zM198 306h9v9h-9zM198 315h9v9h-9zM198 351h9v9h-9zM198 360h9v9h-9zM207 36h9v9h-9zM207 45h9v9h-9zM207 54h9v9h-9zM207 81h9v9h-9zM207 99h9v9h-9zM207 108h9v9h-9zM207 144h9v9h-9zM207 153h9v9h-9zM207 162h9v9h-9zM207 171h9v9h-9zM207 180h9v9h-9zM207 198h9v9h-9zM207 234h9v9h-9zM207 261h9v9h-9zM207 270h9v9h-9zM207 279h9v9h-9zM207 288h9v9h-9zM207 306h9v9h-9zM207 333h9v9h-9zM207 342h9v9h-9zM216 36h9v9h-9zM216 63h9v9h-9zM216 81h9v9h-9zM216 90h9v9h-9zM216 99h9v9h-9zM216 144h9v9h-9zM216 153h9v9h-9zM216 171h9v9h-9zM216 189h9v9h-9zM216 198h9v9h-9zM216 207h9v9h-9zM216 261h9v9h-9zM216 270h9v9h-9zM216 288h9v9h-9zM216 297h9v9h-9zM216 306h9v9h-9zM216 315h9v9h-9zM216 351h9v9h-9zM216 360h9v9h-9zM225 36h9v9h-9zM225 45h9v9h-9zM225 72h9v9h-9zM225 126h9v9h-9zM225 144h9v9h-9zM225 153h9v9h-9zM225 198h9v9h-9zM225 207h9v9h-9zM225 225h9v9h-9zM225 234h9v9h-9zM225 252h9v9h-9zM225 270h9v9h-9zM225 279h9v9h-9zM225 288h9v9h-9zM225 297h9v9h-9zM225 306h9v9h-9zM225 315h9v9h-9zM225 333h9v9h-9zM225 342h9v9h-9zM234 36h9v9h-9zM234 45h9v9h-9zM234 72h9v9h-9zM234 90h9v9h-9zM234 99h9v9h-9zM234 108h9v9h-9zM234 126h9v9h-9zM234 135h9v9h-9zM234 144h9v9h-9zM234 153h9v9h-9zM234 162h9v9h-9zM234 189h9v9h-9zM234 198h9v9h-9zM234 216h9v9h-9zM234 243h9v9h-9zM234 252h9v9h-9zM234 261h9v9h-9zM234 288h9v9h-9zM234 324h9v9h-9zM234 351h9v9h-9zM243 45h9v9h-9zM243 72h9v9h-9zM243 108h9v9h-9zM243 135h9v9h-9zM243 153h9v9h-9zM243 198h9v9h-9zM243 288h9v9h-9zM243 306h9v9h-9zM252 45h9v9h-9zM252 72h9v9h-9zM252 81h9v9h-9zM252 90h9v9h-9zM252 99h9v9h-9zM252 108h9v9h-9zM252 117h9v9h-9zM252 126h9v9h-9zM252 144h9v9h-9zM252 153h9v9h-9zM252 162h9v9h-9zM252 189h9v9h-9zM252 198h9v9h-9zM252 207h9v9h-9zM252 234h9v9h-9zM252 243h9v9h-9zM252 261h9v9h-9zM252 279h9v9h-9zM252 288h9v9h-9zM252 297h9v9h-9zM252 306h9v9h-9zM252 315h9v9h-9zM252 324h9v9h-9zM252 342h9v9h-9zM261 54h9v9h-9zM261 63h9v9h-9zM261 72h9v9h-9zM261 81h9v9h-9zM261 99h9v9h-9zM261 117h9v9h-9zM261 126h9v9h-9zM261 153h9v9h-9zM261 162h9v9h-9zM261 180h9v9h-9zM261 189h9v9h-9zM261 207h9v9h-9zM261 225h9v9h-9zM261 234h9v9h-9zM261 252h9v9h-9zM261 261h9v9h-9zM261 288h9v9h-9zM261 315h9v9h-9zM261 333h9v9h-9zM261 342h9v9h-9zM270 54h9v9h-9zM270 63h9v9h-9zM270 72h9v9h-9zM270 81h9v9h-9zM270 90h9v9h-9zM270 99h9v9h-9zM270 117h9v9h-9zM270 135h9v9h-9zM270 162h9v9h-9zM270 189h9v9h-9zM270 207h9v9h-9zM270 216h9v9h-9zM270 225h9v9h-9zM270 243h9v9h-9zM270 252h9v9h-9zM270 261h9v9h-9zM270 279h9v9h-9zM270 306h9v9h-9zM270 324h9v9h-9zM270 333h9v9h-9zM270 342h9v9h-9zM279 54h9v9h-9zM279 63h9v9h-9zM279 99h9v9h-9zM279 117h9v9h-9zM279 126h9v9h-9zM279 153h9v9h-9zM279 162h9v9h-9zM279 171h9v9h-9zM279 180h9v9h-9zM279 189h9v9h-9zM279 198h9v9h-9zM279 207h9v9h-9zM279 225h9v9h-9zM279 234h9v9h-9zM279 243h9v9h-9zM279 261h9v9h-9zM279 270h9v9h-9zM279 315h9v9h-9zM279 324h9v9h-9zM279 360h9v9h-9zM288 45h9v9h-9zM288 63h9v9h-9zM288 72h9v9h-9zM288 90h9v9h-9zM288 99h9v9h-9zM288 108h9v9h-9zM288 126h9v9h-9zM288 135h9v9h-9zM288 144h9v9h-9zM288 153h9v9h-9zM288 171h9v9h-9zM288 198h9v9h-9zM288 207h9v9h-9zM288 216h9v9h-9zM288 225h9v9h-9zM288 234h9v9h-9zM288 252h9v9h-9zM288 261h9v9h-9zM288 288h9v9h-9zM288 297h9v9h-9zM288 306h9v9h-9zM288 315h9v9h-9zM288 324h9v9h-9zM288 342h9v9h-9zM288 360h9v9h-9zM297 117h9v9h-9zM297 126h9v9h-9zM297 135h9v9h-9zM297 144h9v9h-9zM297 153h9v9h-9zM297 189h9v9h-9zM297 207h9v9h-9zM297 288h9v9h-9zM297 324h9v9h-9zM297 342h9v9h-9zM297 351h9v9h-9zM306 36h9v9h-9zM306 45h9v9h-9zM306 54h9v9h-9zM306 63h9v9h-9zM306 72h9v9h-9zM306 81h9v9h-9zM306 90h9v9h-9zM306 126h9v9h-9zM306 135h9v9h-9zM306 144h9v9h-9zM306 162h9v9h-9zM306 180h9v9h-9zM306 216h9v9h-9zM306 234h9v9h-9zM306 243h9v9h-9zM306 252h9v9h-9zM306 288h9v9h-9zM306 306h9v9h-9zM306 324h9v9h-9zM306 333h9v9h-9zM306 351h9v9h-9zM306 360h9v9h-9zM315 36h9v9h-9zM315 90h9v9h-9zM315 117h9v9h-9zM315 126h9v9h-9zM315 144h9v9h-9zM315 162h9v9h-9zM315 171h9v9h-9zM315 180h9v9h-9zM315 189h9v9h-9zM315 198h9v9h-9zM315 225h9v9h-9zM315 243h9v9h-9zM315 288h9v9h-9zM315 324h9v9h-9zM315 342h9v9h-9zM324 36h9v9h-9zM324 54h9v9h-9zM324 63h9v9h-9zM324 72h9v9h-9zM324 90h9v9h-9zM324 117h9v9h-9zM324 153h9v9h-9zM324 162h9v9h-9zM324 171h9v9h-9zM324 198h9v9h-9zM324 207h9v9h-9zM324 216h9v9h-9zM324 225h9v9h-9zM324 234h9v9h-9zM324 261h9v9h-9zM324 279h9v9h-9zM324 288h9v9h-9zM324 297h9v9h-9zM324 306h9v9h-9zM324 315h9v9h-9zM324 324h9v9h-9zM324 342h9v9h-9zM324 351h9v9h-9zM333 36h9v9h-9zM333 54h9v9h-9zM333 63h9v9h-9zM333 72h9v9h-9zM333 90h9v9h-9zM333 108h9v9h-9zM333 117h9v9h-9zM333 126h9v9h-9zM333 135h9v9h-9zM333 144h9v9h-9zM333 162h9v9h-9zM333 171h9v9h-9zM333 189h9v9h-9zM333 207h9v9h-9zM333 243h9v9h-9zM333 252h9v9h-9zM333 279h9v9h-9zM333 288h9v9h-9zM333 297h9v9h-9zM333 306h9v9h-9zM333 315h9v9h-9zM333 351h9v9h-9zM342 36h9v9h-9zM342 54h9v9h-9zM342 63h9v9h-9zM342 72h9v9h-9zM342 90h9v9h-9zM342 108h9v9h-9zM342 126h9v9h-9zM342 135h9v9h-9zM342 153h9v9h-9zM342 162h9v9h-9zM342 171h9v9h-9zM342 180h9v9h-9zM342 189h9v9h-9zM342 198h9v9h-9zM342 243h9v9h-9zM342 261h9v9h-9zM342 279h9v9h-9zM342 288h9v9h-9zM342 297h9v9h-9zM342 306h9v9h-9zM342 333h9v9h-9zM342 342h9v9h-9zM342 351h9v9h-9zM351 36h9v9h-9zM351 90h9v9h-9zM351 144h9v9h-9zM351 162h9v9h-9zM351 180h9v9h-9zM351 189h9v9h-9zM351 225h9v9h-9zM351 270h9v9h-9zM351 279h9v9h-9zM351 288h9v9h-9zM351 297h9v9h-9zM351 315h9v9h-9zM351 342h9v9h-9zM351 351h9v9h-9zM360 36h9v9h-9zM360 45h9v9h-9zM360 54h9v9h-9zM360 63h9v9h-9zM360 72h9v9h-9zM360 81h9v9h-9zM360 90h9v9h-9zM360 126h9v9h-9zM360 144h9v9h-9zM360 162h9v9h-9zM360 171h9v9h-9zM360 198h9v9h-9zM360 234h9v9h-9zM360 270h9v9h-9zM360 279h9v9h-9zM360 306h9v9h-9zM360 324h9v9h-9zM360 342h9v9h-9zM360 351h9v9h-9zM360 360h9v9h-9z"/></svg>