<svg xmlns="http://www.w3.org/2000/svg" x="0" y="0" viewBox="0 0 512 512" width="512" height="512"><path d="M436.143 336.18H304.945l-6.758 7.508c-10.742 11.936-26.114 18.774-42.178 18.774-16.065 0-31.437-6.839-42.18-18.783l-6.758-7.5H75.857C33.952 336.18 0 370.141 0 412.03c0 41.896 33.952 75.857 75.857 75.857h360.286c41.904 0 75.857-33.96 75.857-75.857 0-41.889-33.952-75.85-75.857-75.85zm-84.568 100.294c-13.516 0-24.452-10.944-24.452-24.445s10.936-24.444 24.452-24.444c13.501 0 24.436 10.944 24.436 24.444s-10.935 24.445-24.436 24.445zm79.1 0c-13.501 0-24.453-10.944-24.453-24.445s10.952-24.444 24.453-24.444c13.5 0 24.436 10.944 24.436 24.444s-10.936 24.445-24.436 24.445zM242.024 318.317a18.806 18.806 0 0 0 13.985 6.218c5.322 0 10.42-2.259 13.984-6.218l71.534-79.494c4.985-5.517 6.226-13.452 3.21-20.243-3.016-6.783-9.775-11.154-17.194-11.154h-33.614V42.929c0-10.387-8.42-18.816-18.808-18.816h-38.227c-10.387 0-18.823 8.428-18.823 18.816v164.497h-33.614a18.809 18.809 0 0 0-17.178 11.154c-3.016 6.791-1.774 14.726 3.21 20.243l71.535 79.494z" fill="#fff"/></svg>